<svg xmlns="http://www.w3.org/2000/svg" viewBox="0 0 260 170" fill="none" role="img" aria-label="Africa Next Workforce Index">
  <defs>
    <clipPath id="globe">
      <circle cx="130" cy="62" r="42"/>
    </clipPath>
  </defs>
  <circle cx="130" cy="62" r="51" fill="#FAFAF8"/>
  <circle cx="130" cy="62" r="50" stroke="#171717" stroke-width="1.25"/>
  <circle cx="130" cy="62" r="46" stroke="#171717" stroke-width="0.75" opacity="0.75"/>
  <circle cx="130" cy="62" r="42" stroke="#171717" stroke-width="0.6" opacity="0.45"/>
  <g clip-path="url(#globe)">
    <ellipse cx="130" cy="62" rx="42" ry="12" stroke="#171717" stroke-width="0.65" opacity="0.28"/>
    <ellipse cx="130" cy="62" rx="42" ry="23" stroke="#171717" stroke-width="0.55" opacity="0.17"/>
    <ellipse cx="130" cy="62" rx="14" ry="42" stroke="#171717" stroke-width="0.6" opacity="0.22"/>
    <ellipse cx="130" cy="62" rx="27" ry="42" stroke="#171717" stroke-width="0.5" opacity="0.14"/>
    <path d="M121 21c9-5 23-5 32 2l8 6c7 6 10 14 10 25l-1 13c-1 15-7 29-17 40l-10 11c-9 10-21 15-34 14l-10-4c-12-5-19-16-21-30l-2-14c-2-13 1-27 8-38l8-14c7-8 17-12 29-11Z" fill="#5F5A52"/>
    <path d="M78 75c-5 8-7 19-3 29 3 7 8 9 12 4 4-5 2-14-4-23-2-5-4-8-5-10Z" fill="#5F5A52"/>
    <path d="M157 40l16 11 5 15-8 12-11-13-4-12 2-13Z" fill="#5F5A52"/>
    <path d="M171 99c6 7 7 18 4 26-3 7-10 8-14 2-5-8 0-19 6-27 2-3 3-3 4-1Z" fill="#C8A951"/>
  </g>
  <path d="M98 118h64M106 126h48" stroke="#171717" stroke-width="1" opacity="0.45" stroke-linecap="round"/>
  <text x="130" y="149" text-anchor="middle" font-family="Inter, Arial, sans-serif" font-size="20" font-weight="500" fill="#171717" letter-spacing="0.02em">AFRICA NEXT</text>
  <text x="130" y="164" text-anchor="middle" font-family="Inter, Arial, sans-serif" font-size="13" font-weight="600" fill="#171717" letter-spacing="0.08em">WORKFORCE INDEX (ANWI)</text>
</svg>
