<svg xmlns="http://www.w3.org/2000/svg" viewBox="0 0 160 160" fill="none" role="img" aria-label="ANWI globe mark">
  <defs>
    <clipPath id="globe">
      <circle cx="80" cy="68" r="46"/>
    </clipPath>
  </defs>
  <circle cx="80" cy="68" r="55" fill="#FAFAF8"/>
  <circle cx="80" cy="68" r="54" stroke="#171717" stroke-width="1.4"/>
  <circle cx="80" cy="68" r="50" stroke="#171717" stroke-width="0.8" opacity="0.75"/>
  <circle cx="80" cy="68" r="46" stroke="#171717" stroke-width="0.65" opacity="0.45"/>
  <g clip-path="url(#globe)">
    <ellipse cx="80" cy="68" rx="46" ry="13" stroke="#171717" stroke-width="0.65" opacity="0.28"/>
    <ellipse cx="80" cy="68" rx="46" ry="25" stroke="#171717" stroke-width="0.55" opacity="0.18"/>
    <ellipse cx="80" cy="68" rx="15" ry="46" stroke="#171717" stroke-width="0.6" opacity="0.22"/>
    <ellipse cx="80" cy="68" rx="29" ry="46" stroke="#171717" stroke-width="0.5" opacity="0.14"/>
    <path d="M70 23c9-5 24-5 34 2l8 6c7 6 10 15 10 26l-1 14c-1 16-7 31-18 43l-10 12c-9 10-22 16-35 15l-11-4c-12-5-20-17-22-31l-2-15c-2-14 1-28 8-40l8-15c7-9 18-13 31-13Z" fill="#5F5A52"/>
    <path d="M25 82c-6 8-7 20-3 31 3 7 8 9 13 4 4-5 2-15-4-24-3-6-5-9-6-11Z" fill="#5F5A52"/>
    <path d="M108 43l17 11 6 16-8 13-12-13-5-13 2-14Z" fill="#5F5A52"/>
    <path d="M124 104c6 8 8 20 4 29-3 7-10 8-15 2-5-8 0-20 6-28 3-4 4-4 5-3Z" fill="#C8A951"/>
  </g>
  <path d="M48 128h64M56 136h48" stroke="#171717" stroke-width="1" opacity="0.45" stroke-linecap="round"/>
</svg>
