<svg xmlns="http://www.w3.org/2000/svg" viewBox="0 0 64 64" fill="none" role="img" aria-label="ANWI">
  <defs>
    <radialGradient id="m-sphere" cx="32%" cy="28%" r="68%" fx="28%" fy="24%">
      <stop offset="0%" stop-color="#2a3441"/>
      <stop offset="55%" stop-color="#161b22"/>
      <stop offset="100%" stop-color="#0a0e14"/>
    </radialGradient>
    <linearGradient id="m-africa" x1="20" y1="12" x2="46" y2="48" gradientUnits="userSpaceOnUse">
      <stop stop-color="#F0E2BC"/>
      <stop offset="0.5" stop-color="#D4BC78"/>
      <stop offset="1" stop-color="#B8954A"/>
    </linearGradient>
    <linearGradient id="m-ring" x1="4" y1="4" x2="60" y2="60" gradientUnits="userSpaceOnUse">
      <stop stop-color="#E8D5A3"/>
      <stop offset="0.5" stop-color="#C8A951"/>
      <stop offset="1" stop-color="#9E8440"/>
    </linearGradient>
    <clipPath id="m-globe">
      <circle cx="32" cy="32" r="25.5"/>
    </clipPath>
  </defs>

  <circle cx="32" cy="32" r="30" stroke="url(#m-ring)" stroke-width="1.5" fill="none"/>
  <circle cx="32" cy="32" r="25.5" fill="url(#m-sphere)"/>

  <g clip-path="url(#m-globe)">
    <!-- Graticule -->
    <ellipse cx="32" cy="32" rx="25.5" ry="7" stroke="#C8A951" stroke-opacity="0.2" stroke-width="0.55" fill="none"/>
    <ellipse cx="32" cy="32" rx="25.5" ry="14" stroke="#C8A951" stroke-opacity="0.15" stroke-width="0.5" fill="none"/>
    <ellipse cx="32" cy="22" rx="21" ry="5" stroke="#C8A951" stroke-opacity="0.1" stroke-width="0.45" fill="none"/>
    <ellipse cx="32" cy="42" rx="21" ry="5" stroke="#C8A951" stroke-opacity="0.1" stroke-width="0.45" fill="none"/>
    <ellipse cx="32" cy="32" rx="8" ry="25.5" stroke="#C8A951" stroke-opacity="0.18" stroke-width="0.5" fill="none"/>
    <ellipse cx="32" cy="32" rx="16" ry="25.5" stroke="#C8A951" stroke-opacity="0.12" stroke-width="0.45" fill="none"/>
    <ellipse cx="32" cy="32" rx="24" ry="25.5" stroke="#C8A951" stroke-opacity="0.08" stroke-width="0.4" fill="none"/>

    <!-- Faint Europe / Arabia context -->
    <path d="M7 24c2-2.5 5.5-3.5 9-2.5 1.5.5 2.5 2 2 3.5-.5 1.5-2.5 2.5-5 2-2-.5-6-.5-6-3z" fill="#C8A951" fill-opacity="0.1"/>
    <path d="M49 16c2.5-.5 6 1 7.5 4.5 1 2 .5 4.5-1.5 5.5s-4.5-.5-6-3c-1.5-2.5-1.5-5.5 0-7z" fill="#C8A951" fill-opacity="0.08"/>

    <!-- Africa mainland -->
    <path
      fill="url(#m-africa)"
      d="M28.5 14.2C30.8 12.8 34 12.6 36.2 14.2L38.2 15.5C39.8 16.8 40.8 18.8 41 21.2L41.2 24.5C41.3 27.8 40.5 31 38.8 33.8L37 36.5C35.2 39 32.5 40.8 29.5 41.2L26.5 40.8C23.8 40 22 37.8 21.2 35L20.5 31.5C20.2 28.5 20.5 25.5 21.5 22.8L23 19.5C24.2 16.8 26.2 14.8 28.5 14.2Z"
    />
    <!-- Gulf of Guinea bulge -->
    <path fill="url(#m-africa)" d="M20.8 30.5C19.5 32.5 19.2 35 20 37.2 20.5 38.5 21.5 39.2 22.5 38.5 23.2 37.5 22.8 35.5 22 33.8 21.5 32.2 21 31 20.8 30.5Z"/>
    <!-- Horn of Africa -->
    <path fill="url(#m-africa)" d="M39.8 21.2L42.5 23.8L43.5 27.2L42 29.5L40 26.8L39.5 24.2 39.8 21.2Z"/>
    <!-- Madagascar -->
    <path fill="url(#m-africa)" d="M43.2 37.5C44.2 38.8 44.5 40.8 44 42.5 43.5 44.2 42 44.5 41.2 43 40.5 41.2 41.5 39 42.5 37.8 43 37 43.2 37.5Z"/>
  </g>

  <ellipse cx="23" cy="21" rx="9" ry="5.5" fill="#fff" fill-opacity="0.07"/>
</svg>
