<svg xmlns="http://www.w3.org/2000/svg" viewBox="0 0 64 64" fill="none">
  <defs>
    <radialGradient id="f-sphere" cx="32%" cy="28%" r="68%">
      <stop offset="0%" stop-color="#2a3441"/>
      <stop offset="55%" stop-color="#161b22"/>
      <stop offset="100%" stop-color="#0a0e14"/>
    </radialGradient>
    <linearGradient id="f-africa" x1="20" y1="12" x2="46" y2="48" gradientUnits="userSpaceOnUse">
      <stop stop-color="#E8D5A3"/>
      <stop offset="1" stop-color="#C8A951"/>
    </linearGradient>
    <clipPath id="f-globe"><circle cx="32" cy="32" r="28"/></clipPath>
  </defs>
  <circle cx="32" cy="32" r="30" stroke="#C8A951" stroke-width="1.75" fill="url(#f-sphere)"/>
  <g clip-path="url(#f-globe)">
    <ellipse cx="32" cy="32" rx="28" ry="8" stroke="#C8A951" stroke-opacity="0.2" stroke-width="0.55" fill="none"/>
    <ellipse cx="32" cy="32" rx="28" ry="16" stroke="#C8A951" stroke-opacity="0.14" stroke-width="0.5" fill="none"/>
    <ellipse cx="32" cy="32" rx="10" ry="28" stroke="#C8A951" stroke-opacity="0.16" stroke-width="0.5" fill="none"/>
    <ellipse cx="32" cy="32" rx="20" ry="28" stroke="#C8A951" stroke-opacity="0.1" stroke-width="0.45" fill="none"/>
    <path fill="url(#f-africa)" d="M28.5 14.2C30.8 12.8 34 12.6 36.2 14.2L38.2 15.5C39.8 16.8 40.8 18.8 41 21.2L41.2 24.5C41.3 27.8 40.5 31 38.8 33.8L37 36.5C35.2 39 32.5 40.8 29.5 41.2L26.5 40.8C23.8 40 22 37.8 21.2 35L20.5 31.5C20.2 28.5 20.5 25.5 21.5 22.8L23 19.5C24.2 16.8 26.2 14.8 28.5 14.2Z"/>
    <path fill="url(#f-africa)" d="M20.8 30.5C19.5 32.5 19.2 35 20 37.2 20.5 38.5 21.5 39.2 22.5 38.5 23.2 37.5 22.8 35.5 22 33.8 21.5 32.2 21 31 20.8 30.5Z"/>
    <path fill="url(#f-africa)" d="M39.8 21.2L42.5 23.8L43.5 27.2L42 29.5L40 26.8L39.5 24.2 39.8 21.2Z"/>
    <path fill="url(#f-africa)" d="M43.2 37.5C44.2 38.8 44.5 40.8 44 42.5 43.5 44.2 42 44.5 41.2 43 40.5 41.2 41.5 39 42.5 37.8 43 37 43.2 37.5Z"/>
  </g>
</svg>
