<svg xmlns="http://www.w3.org/2000/svg" viewBox="0 0 64 64" fill="none">
  <circle cx="32" cy="32" r="30" stroke="#C8A951" stroke-width="2" fill="#0D1117"/>
  <path fill="#C8A951" d="M38.5 12.5c2.8-.4 5.6.6 7.6 2.6l1.4 1.8-.2 4.2-.8 3.4-1.6 4.2-2.4 5.2-2.2 4.4-3.4 3.6-4.2 2.2-4.4.8-3.8-.8-2.8-2.4-1.8-3.8-.8-4.2.2-4.4 1.2-4 2.4-3.2 3.2-2.4 2.8-1.2 3-.6 1.4-.2 2.6 0 3.6.4zm-14.2 8.4c-.8 1.2-1.2 2.6-1.2 4.2 0 2.2.8 4.2 2.2 5.8 1.2 1.4 2.8 2.4 4.6 2.8 1.8.4 3.6 0 5.2-.8 1.4-.8 2.6-1.8 3.6-3 .8-1.2 1.4-2.4 1.6-3.8.2-1.2 0-2.2-.6-2.8-.6-.6-1.4-.8-2.2-.6-.8.2-1.6.8-2.2 1.4-.8.8-1.4 1.8-1.8 2.8-.2.6-.4 1-.8 1.2-.4.2-.8.2-1.2 0-.6-.2-1-.8-1-1.6 0-1 .4-2.2 1-3.4.8-1.4 1.8-2.6 3-3.4 1-.6 2-1 2.8-1 .6-.2 1-.2 1.2 0z"/>
  <path fill="#C8A951" d="M44.5 38.5c.8.8 1 2 .6 3.1-.4 1.2-1.4 2.2-2.6 2.6l-.8.2c-.2-.8 0-1.6.4-2.2.6-.8 1.4-1.2 2.2-1.2.4 0 .8.2 1-.5-.2-.6-.6-1-1-1.2-.6-.4-1.2-.4-1.8-.2z"/>
</svg>
